<svg width="464" height="512" viewBox="0 0 464 512" fill="none" xmlns="http://www.w3.org/2000/svg">
<path d="M427.221 345.038C423.716 365.228 411.246 382.864 393.01 393.426C376.01 403.272 355.639 406.211 334.072 409.321C322.517 410.987 310.569 412.711 298.897 415.589C268.036 423.199 238.143 438.047 209.236 452.405C151.385 481.141 101.424 505.953 54.315 473.305C19.8078 449.388 21.4013 405.139 25.4215 380.891C29.1472 358.426 39.22 337.737 48.9609 317.728C50.644 314.268 52.2933 310.873 53.8983 307.507C58.7263 309.436 63.8616 310.752 69.2146 311.35C59.299 344.074 74.8922 379.656 107.622 396.47L112.101 398.771L116.845 397.082C142.719 387.868 166.561 373.081 187.709 353.129C201.378 340.232 213.132 325.965 222.791 310.72C225.687 311.156 228.649 311.385 231.665 311.385C261.704 311.385 286.579 288.928 290.429 259.924C302.724 259.474 315.785 259.47 328.152 259.92C331.999 288.926 356.875 311.385 386.915 311.385C399.475 311.385 411.126 307.449 420.724 300.762C427.388 314.402 429.875 329.75 427.221 345.038ZM75.8269 216.413C95.6883 216.413 111.845 232.571 111.845 252.431C111.845 259.565 109.752 266.216 106.158 271.819C100.169 281.156 89.9955 287.556 78.3014 288.355C77.4832 288.41 76.6591 288.449 75.8269 288.449C71.4016 288.449 67.1614 287.641 63.2412 286.176C55.3114 283.208 48.7037 277.518 44.5473 270.253C41.5385 264.993 39.8089 258.912 39.8089 252.431C39.8089 232.571 55.9666 216.413 75.8269 216.413ZM195.647 252.089C195.647 234.044 208.986 219.061 226.319 216.47C228.064 216.208 229.849 216.071 231.665 216.071C243.211 216.071 253.491 221.541 260.085 230.017C261.724 232.122 263.145 234.407 264.289 236.847C266.462 241.479 267.683 246.643 267.683 252.089C267.683 254.968 267.334 257.767 266.692 260.453C263.182 275.147 250.652 286.378 235.299 287.924C234.105 288.044 232.892 288.107 231.665 288.107C224.474 288.107 217.775 285.98 212.145 282.335C202.228 275.911 195.647 264.757 195.647 252.089ZM345.973 209.259C338.257 216.642 332.519 226.075 329.661 236.682C316.324 236.181 302.181 236.181 288.92 236.682C285.874 225.376 279.556 215.403 271.058 207.826L308.328 132.465L345.973 209.259ZM185.43 23.2787H431.126L373.096 194.431C370.581 195.035 368.127 195.795 365.746 196.709L308.42 79.7657L250.932 196.01C248.447 195.155 245.886 194.466 243.265 193.943L185.43 23.2787ZM422.933 252.089C422.933 255.7 422.393 259.186 421.4 262.478C419.035 270.309 414.072 277.019 407.518 281.607C401.675 285.697 394.573 288.107 386.915 288.107C370.285 288.107 356.256 276.773 352.132 261.426C351.332 258.446 350.897 255.317 350.897 252.089C350.897 247.165 351.893 242.471 353.689 238.194C354.614 235.989 355.768 233.906 357.094 231.948C363.576 222.381 374.515 216.071 386.915 216.071C388.053 216.071 389.175 216.13 390.285 216.234C408.572 217.938 422.933 233.364 422.933 252.089ZM446.212 252.089C446.212 223.139 425.354 198.985 397.882 193.824L463.599 0H152.962L218.779 194.219C192.26 200.12 172.368 223.818 172.368 252.089C172.368 273.316 183.587 291.964 200.401 302.442C192.314 314.491 182.723 325.829 171.734 336.197C154.304 352.64 134.887 365.109 113.954 373.314C92.8692 360.069 83.9558 335.092 93.2126 313.333L93.9377 311.627C94.3916 310.562 94.8456 309.495 95.2984 308.428C118.457 300.35 135.124 278.307 135.124 252.431C135.124 219.734 108.523 193.134 75.8269 193.134C43.1308 193.134 16.5302 219.734 16.5302 252.431C16.5302 268.934 23.3136 283.879 34.2313 294.64C32.2526 298.857 30.1692 303.146 28.031 307.537C18.0491 328.04 6.73567 351.278 2.45705 377.082C-6.04084 428.331 7.66682 469.298 41.0543 492.438C61.3149 506.479 81.8886 512 102.594 512C141.581 512 181.019 492.413 219.592 473.254C247.371 459.457 276.097 445.188 304.471 438.19C315.028 435.587 325.893 434.02 337.395 432.361C360.202 429.071 383.787 425.67 404.677 413.571C428.893 399.544 445.469 376.016 450.157 349.021C454.18 325.846 449.338 302.634 437.528 282.949C443.033 273.953 446.212 263.386 446.212 252.089Z" fill="white"/>
</svg>
