<svg width="512" height="314" viewBox="0 0 512 314" fill="none" xmlns="http://www.w3.org/2000/svg">
<path fill-rule="evenodd" clip-rule="evenodd" d="M253.222 313.519C251.486 313.519 249.866 313.056 248.361 312.246L232.969 303.103C230.654 301.83 231.811 301.367 232.506 301.136C235.631 300.094 236.209 299.863 239.45 298.011C239.797 297.779 240.26 297.895 240.607 298.127L252.412 305.186C252.875 305.418 253.453 305.418 253.801 305.186L299.978 278.452C300.441 278.221 300.672 277.758 300.672 277.179V223.826C300.672 223.248 300.441 222.785 299.978 222.553L253.801 195.935C253.338 195.703 252.759 195.703 252.412 195.935L206.235 222.553C205.772 222.785 205.54 223.363 205.54 223.826V277.179C205.54 277.642 205.772 278.221 206.235 278.452L218.849 285.743C225.678 289.215 229.96 285.165 229.96 281.114V228.456C229.96 227.761 230.538 227.067 231.349 227.067H237.251C237.945 227.067 238.64 227.646 238.64 228.456V281.114C238.64 290.257 233.663 295.58 224.983 295.58C222.321 295.58 220.238 295.58 214.336 292.687L202.184 285.743C199.175 284.007 197.323 280.767 197.323 277.295V223.942C197.323 220.47 199.175 217.23 202.184 215.494L248.361 188.76C251.255 187.139 255.189 187.139 258.083 188.76L304.26 215.494C307.269 217.23 309.121 220.47 309.121 223.942V277.295C309.121 280.767 307.269 284.007 304.26 285.743L258.083 312.477C256.578 313.172 254.842 313.519 253.222 313.519ZM267.457 276.832C247.204 276.832 243.038 267.573 243.038 259.703C243.038 259.009 243.616 258.315 244.426 258.315H250.444C251.139 258.315 251.717 258.778 251.717 259.472C252.643 265.606 255.305 268.615 267.573 268.615C277.294 268.615 281.461 266.416 281.461 261.208C281.461 258.199 280.303 256 265.142 254.495C252.528 253.222 244.658 250.445 244.658 240.376C244.658 231.002 252.528 225.447 265.721 225.447C280.535 225.447 287.826 230.539 288.752 241.649C288.752 241.996 288.636 242.344 288.405 242.691C288.173 242.922 287.826 243.154 287.479 243.154H281.461C280.882 243.154 280.303 242.691 280.188 242.112C278.799 235.747 275.211 233.664 265.721 233.664C255.074 233.664 253.801 237.367 253.801 240.145C253.801 243.501 255.305 244.543 269.656 246.394C283.891 248.246 290.604 250.908 290.604 260.861C290.488 271.045 282.155 276.832 267.457 276.832Z" fill="#539E43"/>
<path fill-rule="evenodd" clip-rule="evenodd" d="M109.946 104.854C109.946 102.77 108.788 100.803 106.937 99.7614L57.8662 71.5227C57.0561 71.0597 56.1302 70.8283 55.2043 70.7125H54.7414C53.8156 70.7125 52.8897 71.0597 52.0796 71.5227L3.00904 99.7614C1.15732 100.803 0 102.77 0 104.854L0.115732 180.774C0.115732 181.816 0.694394 182.857 1.62025 183.32C2.54611 183.899 3.70344 183.899 4.51356 183.32L33.6781 166.655C35.5298 165.613 36.6872 163.646 36.6872 161.562V126.033C36.6872 123.949 37.8445 121.982 39.6962 120.94L52.0796 113.765C53.0054 113.186 54.047 112.955 55.0886 112.955C56.1302 112.955 57.1718 113.186 57.9819 113.765L70.3653 120.94C72.217 121.982 73.3743 123.949 73.3743 126.033V161.562C73.3743 163.646 74.5317 165.613 76.3834 166.655L105.548 183.32C106.474 183.899 107.631 183.899 108.557 183.32C109.483 182.857 110.062 181.816 110.062 180.774L109.946 104.854Z" fill="#333333"/>
<path fill-rule="evenodd" clip-rule="evenodd" d="M345.807 0.347197C344.881 -0.115732 343.724 -0.115732 342.914 0.347197C341.988 0.925859 341.409 1.85172 341.409 2.89331V78.1194C341.409 78.8138 341.062 79.5082 340.368 79.9711C339.674 80.3183 338.979 80.3183 338.285 79.9711L326.017 72.9114C324.165 71.8698 321.966 71.8698 320.115 72.9114L271.044 101.266C269.192 102.307 268.035 104.275 268.035 106.358V162.951C268.035 165.034 269.192 167.002 271.044 168.043L320.115 196.398C321.966 197.439 324.165 197.439 326.017 196.398L375.088 168.043C376.939 167.002 378.097 165.034 378.097 162.951V21.8734C378.097 19.6745 376.939 17.7071 375.088 16.6655L345.807 0.347197ZM341.293 144.318C341.293 144.897 341.062 145.36 340.599 145.591L323.818 155.313C323.355 155.544 322.776 155.544 322.313 155.313L305.532 145.591C305.069 145.36 304.838 144.781 304.838 144.318V124.875C304.838 124.297 305.069 123.834 305.532 123.602L322.313 113.881C322.776 113.649 323.355 113.649 323.818 113.881L340.599 123.602C341.062 123.834 341.293 124.412 341.293 124.875V144.318Z" fill="#333333"/>
<path fill-rule="evenodd" clip-rule="evenodd" d="M509.107 124.412C510.958 123.371 512 121.403 512 119.32V105.548C512 103.465 510.843 101.497 509.107 100.456L460.383 72.217C458.532 71.1755 456.333 71.1755 454.481 72.217L405.41 100.571C403.559 101.613 402.401 103.581 402.401 105.664V162.257C402.401 164.34 403.559 166.307 405.41 167.349L454.134 195.125C455.985 196.166 458.184 196.166 459.92 195.125L489.432 178.691C490.358 178.228 490.937 177.186 490.937 176.145C490.937 175.103 490.358 174.062 489.432 173.599L440.13 145.244C439.204 144.666 438.626 143.74 438.626 142.698V124.991C438.626 123.949 439.204 122.908 440.13 122.445L455.523 113.649C456.448 113.071 457.606 113.071 458.532 113.649L473.924 122.445C474.85 123.024 475.429 123.949 475.429 124.991V138.879C475.429 139.92 476.007 140.962 476.933 141.425C477.859 142.004 479.016 142.004 479.942 141.425L509.107 124.412Z" fill="#333333"/>
<path fill-rule="evenodd" clip-rule="evenodd" d="M456.68 121.75C457.027 121.519 457.49 121.519 457.837 121.75L467.211 127.19C467.558 127.421 467.79 127.769 467.79 128.231V139.11C467.79 139.573 467.558 139.92 467.211 140.152L457.837 145.591C457.49 145.823 457.027 145.823 456.68 145.591L447.305 140.152C446.958 139.92 446.727 139.573 446.727 139.11V128.231C446.727 127.769 446.958 127.421 447.305 127.19L456.68 121.75Z" fill="#539E43"/>
<path fill-rule="evenodd" clip-rule="evenodd" d="M191.999 72.4484C190.148 71.4068 187.949 71.4068 186.097 72.4484L137.374 100.571C135.522 101.613 134.48 103.58 134.48 105.664V162.025C134.48 164.108 135.638 166.076 137.374 167.118L186.097 195.24C187.949 196.282 190.148 196.282 191.999 195.24L240.723 167.118C242.575 166.076 243.616 164.108 243.616 162.025V105.664C243.616 103.58 242.459 101.613 240.723 100.571L191.999 72.4484Z" fill="white"/>
<path fill-rule="evenodd" clip-rule="evenodd" d="M191.999 72.4484C190.148 71.4068 187.949 71.4068 186.097 72.4484L137.374 100.571C135.522 101.613 134.48 103.58 134.48 105.664V162.025C134.48 164.108 135.638 166.076 137.374 167.118L186.097 195.24C187.949 196.282 190.148 196.282 191.999 195.24L240.723 167.118C242.575 166.076 243.616 164.108 243.616 162.025V105.664C243.616 103.58 242.459 101.613 240.723 100.571L191.999 72.4484Z" fill="url(#paint0_linear_337_402)"/>
<mask id="mask0_337_402" style="mask-type:luminance" maskUnits="userSpaceOnUse" x="134" y="71" width="110" height="126">
<path fill-rule="evenodd" clip-rule="evenodd" d="M191.999 72.4484C190.148 71.4068 187.949 71.4068 186.097 72.4484L137.374 100.571C135.522 101.613 134.48 103.58 134.48 105.664V162.025C134.48 164.108 135.638 166.076 137.374 167.118L186.097 195.24C187.949 196.282 190.148 196.282 191.999 195.24L240.723 167.118C242.575 166.076 243.616 164.108 243.616 162.025V105.664C243.616 103.58 242.459 101.613 240.723 100.571L191.999 72.4484Z" fill="white"/>
</mask>
<g mask="url(#mask0_337_402)">
<path fill-rule="evenodd" clip-rule="evenodd" d="M240.839 100.571L191.884 72.4484C191.421 72.2169 190.843 71.9855 190.38 71.8698L135.522 165.844C135.985 166.423 136.564 166.886 137.143 167.233L186.098 195.356C187.486 196.166 189.107 196.398 190.611 195.935L242.112 101.729C241.765 101.266 241.302 100.919 240.839 100.571Z" fill="url(#paint1_linear_337_402)"/>
</g>
<mask id="mask1_337_402" style="mask-type:luminance" maskUnits="userSpaceOnUse" x="134" y="71" width="110" height="126">
<path fill-rule="evenodd" clip-rule="evenodd" d="M191.999 72.4484C190.148 71.4068 187.949 71.4068 186.097 72.4484L137.374 100.571C135.522 101.613 134.48 103.58 134.48 105.664V162.025C134.48 164.108 135.638 166.076 137.374 167.118L186.097 195.24C187.949 196.282 190.148 196.282 191.999 195.24L240.723 167.118C242.575 166.076 243.616 164.108 243.616 162.025V105.664C243.616 103.58 242.459 101.613 240.723 100.571L191.999 72.4484Z" fill="white"/>
</mask>
<g mask="url(#mask1_337_402)">
<path fill-rule="evenodd" clip-rule="evenodd" d="M240.955 167.118C242.343 166.307 243.385 164.919 243.848 163.414L190.148 71.7541C188.759 71.5226 187.255 71.6383 185.982 72.4484L137.374 100.456L189.801 196.051C190.495 195.935 191.305 195.703 192 195.356L240.955 167.118Z" fill="url(#paint2_linear_337_402)"/>
<path fill-rule="evenodd" clip-rule="evenodd" d="M240.954 167.118L192.115 195.24C191.421 195.588 190.726 195.819 189.916 195.935L190.842 197.671L245.005 166.307V165.613L243.616 163.298C243.384 164.919 242.343 166.307 240.954 167.118Z" fill="url(#paint3_linear_337_402)"/>
<path fill-rule="evenodd" clip-rule="evenodd" d="M240.954 167.118L192.115 195.24C191.421 195.588 190.726 195.819 189.916 195.935L190.842 197.671L245.005 166.307V165.613L243.616 163.298C243.384 164.919 242.343 166.307 240.954 167.118Z" fill="url(#paint4_linear_337_402)"/>
</g>
<defs>
<linearGradient id="paint0_linear_337_402" x1="178.525" y1="77.6053" x2="126.661" y2="140.37" gradientUnits="userSpaceOnUse">
<stop stop-color="#41873F"/>
<stop offset="0.3288" stop-color="#418B3D"/>
<stop offset="0.6352" stop-color="#419637"/>
<stop offset="0.9319" stop-color="#3FA92D"/>
<stop offset="1" stop-color="#3FAE2A"/>
</linearGradient>
<linearGradient id="paint1_linear_337_402" x1="210.445" y1="210.82" x2="340.179" y2="158.991" gradientUnits="userSpaceOnUse">
<stop offset="0.1376" stop-color="#41873F"/>
<stop offset="0.4032" stop-color="#54A044"/>
<stop offset="0.7136" stop-color="#66B848"/>
<stop offset="0.9081" stop-color="#6CC04A"/>
</linearGradient>
<linearGradient id="paint2_linear_337_402" x1="132.701" y1="199.71" x2="245.444" y2="199.71" gradientUnits="userSpaceOnUse">
<stop offset="0.0919165" stop-color="#6CC04A"/>
<stop offset="0.2864" stop-color="#66B848"/>
<stop offset="0.5968" stop-color="#54A044"/>
<stop offset="0.8624" stop-color="#41873F"/>
</linearGradient>
<linearGradient id="paint3_linear_337_402" x1="132.701" y1="215.752" x2="245.444" y2="215.752" gradientUnits="userSpaceOnUse">
<stop offset="0.0919165" stop-color="#6CC04A"/>
<stop offset="0.2864" stop-color="#66B848"/>
<stop offset="0.5968" stop-color="#54A044"/>
<stop offset="0.8624" stop-color="#41873F"/>
</linearGradient>
<linearGradient id="paint4_linear_337_402" x1="121.081" y1="82.3033" x2="110.451" y2="225.372" gradientUnits="userSpaceOnUse">
<stop stop-color="#41873F"/>
<stop offset="0.3288" stop-color="#418B3D"/>
<stop offset="0.6352" stop-color="#419637"/>
<stop offset="0.9319" stop-color="#3FA92D"/>
<stop offset="1" stop-color="#3FAE2A"/>
</linearGradient>
</defs>
</svg>
