<svg width="480" height="449" viewBox="0 0 480 449" fill="none" xmlns="http://www.w3.org/2000/svg">
<path d="M332.589 312.897C350.302 311.094 363.741 296.082 363.129 278.065C362.52 260.05 347.248 245.637 328.924 245.637H327.703C308.766 246.237 294.107 261.851 294.718 280.467C295.329 289.475 298.993 297.282 304.491 302.687C283.723 342.924 251.961 372.349 204.317 396.971C171.943 413.786 138.349 419.792 104.754 415.589C77.2669 411.985 55.8881 399.976 42.4481 380.156C22.9031 350.73 21.0712 318.901 37.5637 287.074C49.17 264.253 67.4925 247.438 79.0987 239.03C76.6556 231.223 72.99 218.012 71.1581 208.404C-17.4113 271.46 -8.24815 356.736 18.6281 396.971C38.7844 427 79.71 445.616 124.911 445.616C137.126 445.616 149.342 444.414 161.559 441.413C239.745 426.399 298.995 380.757 332.589 312.897ZM440.094 238.431C393.671 184.983 325.26 155.557 247.074 155.557H237.302C231.804 144.747 220.198 137.54 207.371 137.54H206.149C187.215 138.141 172.556 153.754 173.166 172.372C173.777 190.387 189.047 204.801 207.371 204.801H208.592C222.03 204.2 233.636 195.792 238.522 184.382H249.517C295.941 184.382 339.919 197.593 379.624 223.417C410.164 243.235 432.154 269.058 444.369 300.285C454.753 325.508 454.142 350.129 443.147 371.149C426.045 402.977 397.337 420.393 359.466 420.393C335.032 420.393 311.822 413.185 299.604 407.781C292.886 413.786 280.669 423.394 272.117 429.401C298.384 441.411 325.26 448.018 350.914 448.018C409.552 448.018 452.921 416.188 469.414 384.361C487.127 349.529 485.904 289.475 440.094 238.431ZM129.797 323.104C130.408 341.121 145.678 355.532 164.002 355.532H165.225C184.161 354.933 198.819 339.318 198.208 320.702C197.599 302.685 182.327 288.274 164.002 288.274H162.782C161.559 288.274 159.726 288.274 158.507 288.873C133.462 248.037 123.079 203.599 126.744 155.555C129.186 119.523 141.403 88.2944 162.782 62.4707C180.495 40.2508 214.701 29.4413 237.913 28.8423C302.659 27.6404 330.144 106.911 331.978 138.74C339.919 140.541 353.357 144.746 362.52 147.748C355.189 50.4631 294.107 0.0175781 235.47 0.0175781C180.495 0.0175781 129.797 39.0526 109.639 96.7038C81.5419 173.572 99.8662 247.438 134.072 305.69C131.019 309.893 129.186 316.499 129.797 323.106V323.104Z" fill="#764ABC"/>
</svg>
