<svg width="453" height="512" viewBox="0 0 453 512" fill="none" xmlns="http://www.w3.org/2000/svg">
    <path d="M226.246 0L452.493 127.979V384.021L226.246 512L0 384.021V127.979L226.246 0Z" fill="white"/>
    <path d="M412.113 375.142L233.763 476.142V397.596L344.922 336.381L412.113 375.142ZM424.322 364.129V153.079L359.095 190.73V326.478L424.322 364.129ZM39.7029 375.142L218.053 476.057V397.511L106.894 336.381L39.7029 375.142ZM27.4941 364.129V153.079L92.7214 190.73V326.478L27.4941 364.129ZM35.0926 139.419L218.053 35.9431V111.928L100.832 176.387L99.893 176.899L35.0926 139.419ZM416.638 139.419L233.763 35.9431V111.928L350.898 176.472L351.838 176.984L416.638 139.419Z" fill="#8ED6FB"/>
    <path d="M218.051 379.667L108.428 319.306V199.865L218.051 263.129V379.667ZM233.76 379.667L343.383 319.392V199.865L233.76 263.129V379.667ZM115.77 186.035L225.905 125.503L335.955 186.035L225.905 249.554L115.77 186.035Z" fill="#1C78C0"/>
</svg>
